<?xml version="1.0" encoding="utf-8"?>
<!-- Svg Vector Icons : http://www.onlinewebfonts.com/icon -->
<!DOCTYPE svg PUBLIC "-//W3C//DTD SVG 1.1//EN" "http://www.w3.org/Graphics/SVG/1.1/DTD/svg11.dtd">
<svg version="1.1" xmlns="http://www.w3.org/2000/svg" xmlns:xlink="http://www.w3.org/1999/xlink" x="0px" y="0px" viewBox="0 0 1000 1000" enable-background="new 0 0 1000 1000" xml:space="preserve">
<metadata> Svg Vector Icons : http://www.onlinewebfonts.com/icon </metadata>
<g><g transform="translate(0.000000,511.000000) scale(0.100000,-0.100000)"><path d="M4467.8,4982.7C2565.7,4769.1,936,3429,332.2,1585.8C-171,49.4,155.5-1676.1,1196.1-2967.1c191.4-235.6,628.3-657.8,871.3-841.8c665.1-498.2,1408.8-810,2240.8-940c355.9-56.5,1033.3-56.5,1384.3,0c2169.7,341.2,3823.9,1995.4,4165.1,4165.1c56.5,351,56.5,1028.4,0,1384.3c-130.1,832-441.8,1575.7-940,2240.8c-184.1,243-606.2,679.9-841.8,871.3C7059.6,4732.3,5731.8,5125,4467.8,4982.7z M5493.8,4614.5c1565.9-169.4,2891.2-1094.7,3576-2488.7c873.8-1784.3,503.1-3927-915.5-5294.1C6473.1-4788.3,3802.7-4857,2013.4-3323c-429.5,368.2-795.2,841.9-1067.7,1384.3c-719.1,1438.3-621,3203,257.7,4543.1C2133.7,4025.4,3792.9,4801,5493.8,4614.5z"/><path d="M2470,800.4c-549.8-196.4-505.6-996.5,66.3-1114.3c88.4-19.7,873.8-27,2594.3-22.1l2466.6,7.4l100.6,54c370.6,198.8,441.8,660.2,144.8,947.4c-176.7,171.8-61.4,164.4-2807.8,164.4C3000.1,834.8,2548.5,829.8,2470,800.4z"/></g></g>
</svg>