<?xml version="1.0" encoding="utf-8"?>
<!-- Svg Vector Icons : http://www.onlinewebfonts.com/icon -->
<!DOCTYPE svg PUBLIC "-//W3C//DTD SVG 1.1//EN" "http://www.w3.org/Graphics/SVG/1.1/DTD/svg11.dtd">
<svg version="1.1" xmlns="http://www.w3.org/2000/svg" xmlns:xlink="http://www.w3.org/1999/xlink" x="0px" y="0px" viewBox="0 0 1000 1000" enable-background="new 0 0 1000 1000" xml:space="preserve">
<metadata> Svg Vector Icons : http://www.onlinewebfonts.com/icon </metadata>
<g><path d="M676.9,444.9H554.4V322.4c0-22.5-18.3-40.8-40.8-40.8h-27.2c-22.6,0-40.8,18.3-40.8,40.8v122.5H323.1c-22.6,0-40.8,18.3-40.8,40.8v27.2c0,22.6,18.3,40.8,40.8,40.8h122.5v122.5c0,22.6,18.3,40.8,40.8,40.8h27.2c22.6,0,40.8-18.3,40.8-40.8V553.8h122.5c22.6,0,40.8-18.3,40.8-40.8v-27.2C717.8,463.2,699.5,444.9,676.9,444.9z M513.6,10h-27.2C223.3,10,10,223.3,10,486.4v27.2C10,776.7,223.3,990,486.4,990h27.2C776.7,990,990,776.7,990,513.6v-27.2C990,223.3,776.7,10,513.6,10z M500,934.1C260.2,934.1,65.9,739.8,65.9,500S260.2,65.9,500,65.9c239.8,0,434.1,194.4,434.1,434.1S739.8,934.1,500,934.1z"/></g>
</svg>